<svg xmlns="http://www.w3.org/2000/svg" version="1.1" xmlns:xlink="http://www.w3.org/1999/xlink" xmlns:svgjs="http://svgjs.dev/svgjs" width="1500" height="1500" viewBox="0 0 1500 1500"><rect width="1500" height="1500" fill="#ffffff"></rect><g transform="matrix(0.6666666666666666,0,0,0.6666666666666666,249.39393939393938,655.5624823696637)"><svg viewBox="0 0 396 74" data-background-color="#ffffff" preserveAspectRatio="xMidYMid meet" height="280" width="1500" xmlns="http://www.w3.org/2000/svg" xmlns:xlink="http://www.w3.org/1999/xlink"><g id="tight-bounds" transform="matrix(1,0,0,1,0.2400000000000091,0.43773020345474833)"><svg viewBox="0 0 395.52 73.1245395930905" height="73.1245395930905" width="395.52"><g><svg viewBox="0 0 497.6878237938709 92.01353402107091" height="73.1245395930905" width="395.52"><g transform="matrix(1,0,0,1,0,12.716776409569135)"><svg viewBox="0 0 395.52 66.57998120193264" height="66.57998120193264" width="395.52"><g id="textblocktransform"><svg viewBox="0 0 395.52 66.57998120193264" height="66.57998120193264" width="395.52" id="textblock"><g><svg viewBox="0 0 395.52 43.01279999999999" height="43.01279999999999" width="395.52"><g transform="matrix(1,0,0,1,0,0)"><svg width="395.52" viewBox="2.4 -37.85 439.96000000000004 47.85" height="43.01279999999999" data-palette-color="#18a0fb"><path d="M29.5-6.3L29.5-17.7 34.3-17.7 34.3-4.05Q31.7-1.9 28.25-0.75 24.8 0.4 21.05 0.4L21.05 0.4Q15.75 0.4 11.5-1.93 7.25-4.25 4.83-8.33 2.4-12.4 2.4-17.5L2.4-17.5Q2.4-22.6 4.83-26.7 7.25-30.8 11.53-33.1 15.8-35.4 21.15-35.4L21.15-35.4Q25.35-35.4 28.78-34.02 32.2-32.65 34.6-30L34.6-30 31.5-26.9Q27.3-30.95 21.35-30.95L21.35-30.95Q17.35-30.95 14.18-29.23 11-27.5 9.2-24.43 7.4-21.35 7.4-17.5L7.4-17.5Q7.4-13.7 9.2-10.63 11-7.55 14.18-5.8 17.35-4.05 21.3-4.05L21.3-4.05Q26-4.05 29.5-6.3L29.5-6.3ZM67.1-13.1Q67.1-12.55 67-11.65L67-11.65 45.5-11.65Q45.95-8.15 48.57-6.03 51.2-3.9 55.1-3.9L55.1-3.9Q59.85-3.9 62.75-7.1L62.75-7.1 65.4-4Q63.6-1.9 60.92-0.8 58.25 0.3 54.95 0.3L54.95 0.3Q50.75 0.3 47.5-1.43 44.25-3.15 42.47-6.25 40.7-9.35 40.7-13.25L40.7-13.25Q40.7-17.1 42.42-20.2 44.15-23.3 47.17-25.03 50.2-26.75 54-26.75L54-26.75Q57.8-26.75 60.77-25.03 63.75-23.3 65.42-20.2 67.1-17.1 67.1-13.1L67.1-13.1ZM54-22.7Q50.55-22.7 48.22-20.6 45.9-18.5 45.5-15.1L45.5-15.1 62.5-15.1Q62.1-18.45 59.77-20.58 57.45-22.7 54-22.7L54-22.7ZM87.9-26.75Q92.95-26.75 95.92-23.83 98.9-20.9 98.9-15.25L98.9-15.25 98.9 0 94.1 0 94.1-14.7Q94.1-18.55 92.25-20.5 90.4-22.45 86.95-22.45L86.95-22.45Q83.05-22.45 80.8-20.18 78.55-17.9 78.55-13.65L78.55-13.65 78.55 0 73.75 0 73.75-26.5 78.35-26.5 78.35-22.5Q79.8-24.55 82.27-25.65 84.75-26.75 87.9-26.75L87.9-26.75ZM148.09 0L144.24-8.75 125.64-8.75 121.79 0 116.64 0 132.49-35 137.44-35 153.34 0 148.09 0ZM127.39-12.75L142.49-12.75 134.94-29.9 127.39-12.75ZM157.84 0L157.84-37.1 162.64-37.1 162.64 0 157.84 0ZM185.84-26.75Q189.69-26.75 192.74-25.05 195.79-23.35 197.51-20.3 199.24-17.25 199.24-13.25L199.24-13.25Q199.24-9.25 197.51-6.18 195.79-3.1 192.74-1.4 189.69 0.3 185.84 0.3L185.84 0.3Q182.99 0.3 180.61-0.8 178.24-1.9 176.59-4L176.59-4 176.59 9.7 171.79 9.7 171.79-26.5 176.39-26.5 176.39-22.3Q177.99-24.5 180.44-25.63 182.89-26.75 185.84-26.75L185.84-26.75ZM185.44-3.9Q187.99-3.9 190.01-5.08 192.04-6.25 193.21-8.38 194.39-10.5 194.39-13.25L194.39-13.25Q194.39-16 193.21-18.13 192.04-20.25 190.01-21.4 187.99-22.55 185.44-22.55L185.44-22.55Q182.94-22.55 180.91-21.38 178.89-20.2 177.71-18.1 176.54-16 176.54-13.25L176.54-13.25Q176.54-10.5 177.69-8.38 178.84-6.25 180.89-5.08 182.94-3.9 185.44-3.9L185.44-3.9ZM220.03-26.75Q225.08-26.75 228.06-23.83 231.03-20.9 231.03-15.25L231.03-15.25 231.03 0 226.23 0 226.23-14.7Q226.23-18.55 224.38-20.5 222.53-22.45 219.08-22.45L219.08-22.45Q215.18-22.45 212.93-20.18 210.68-17.9 210.68-13.65L210.68-13.65 210.68 0 205.88 0 205.88-37.1 210.68-37.1 210.68-22.75Q212.18-24.65 214.61-25.7 217.03-26.75 220.03-26.75L220.03-26.75ZM249.58-26.75Q255.08-26.75 258-24.05 260.93-21.35 260.93-16L260.93-16 260.93 0 256.38 0 256.38-3.5Q255.18-1.65 252.96-0.68 250.73 0.3 247.68 0.3L247.68 0.3Q243.23 0.3 240.56-1.85 237.88-4 237.88-7.5L237.88-7.5Q237.88-11 240.43-13.13 242.98-15.25 248.53-15.25L248.53-15.25 256.13-15.25 256.13-16.2Q256.13-19.3 254.33-20.95 252.53-22.6 249.03-22.6L249.03-22.6Q246.68-22.6 244.43-21.83 242.18-21.05 240.63-19.75L240.63-19.75 238.63-23.35Q240.68-25 243.53-25.88 246.38-26.75 249.58-26.75L249.58-26.75ZM248.48-3.4Q251.23-3.4 253.23-4.63 255.23-5.85 256.13-8.1L256.13-8.1 256.13-11.8 248.73-11.8Q242.63-11.8 242.63-7.7L242.63-7.7Q242.63-5.7 244.18-4.55 245.73-3.4 248.48-3.4L248.48-3.4ZM283.98 0L283.98-35 298.73-35Q304.28-35 308.58-32.8 312.88-30.6 315.25-26.63 317.63-22.65 317.63-17.5L317.63-17.5Q317.63-12.35 315.25-8.38 312.88-4.4 308.58-2.2 304.28 0 298.73 0L298.73 0 283.98 0ZM288.98-4.35L298.43-4.35Q302.68-4.35 305.9-6 309.13-7.65 310.88-10.63 312.63-13.6 312.63-17.5L312.63-17.5Q312.63-21.4 310.88-24.38 309.13-27.35 305.9-29 302.68-30.65 298.43-30.65L298.43-30.65 288.98-30.65 288.98-4.35ZM324.57 0L324.57-26.5 329.37-26.5 329.37 0 324.57 0ZM326.97-31.6Q325.57-31.6 324.65-32.5 323.72-33.4 323.72-34.7L323.72-34.7Q323.72-36 324.65-36.93 325.57-37.85 326.97-37.85L326.97-37.85Q328.37-37.85 329.3-36.98 330.22-36.1 330.22-34.8L330.22-34.8Q330.22-33.45 329.3-32.52 328.37-31.6 326.97-31.6L326.97-31.6ZM359.32-26.5L363.87-26.5 363.87-3.6Q363.87 3.35 360.42 6.68 356.97 10 350.12 10L350.12 10Q346.37 10 342.97 8.97 339.57 7.95 337.47 6.05L337.47 6.05 339.77 2.35Q341.62 3.95 344.35 4.88 347.07 5.8 349.97 5.8L349.97 5.8Q354.62 5.8 356.85 3.6 359.07 1.4 359.07-3.1L359.07-3.1 359.07-5.2Q357.37-3.15 354.9-2.13 352.42-1.1 349.52-1.1L349.52-1.1Q345.72-1.1 342.65-2.73 339.57-4.35 337.82-7.28 336.07-10.2 336.07-13.95L336.07-13.95Q336.07-17.7 337.82-20.63 339.57-23.55 342.65-25.15 345.72-26.75 349.52-26.75L349.52-26.75Q352.52-26.75 355.1-25.65 357.67-24.55 359.32-22.4L359.32-22.4 359.32-26.5ZM350.07-5.3Q352.67-5.3 354.75-6.4 356.82-7.5 358-9.47 359.17-11.45 359.17-13.95L359.17-13.95Q359.17-17.8 356.62-20.18 354.07-22.55 350.07-22.55L350.07-22.55Q346.02-22.55 343.47-20.18 340.92-17.8 340.92-13.95L340.92-13.95Q340.92-11.45 342.1-9.47 343.27-7.5 345.35-6.4 347.42-5.3 350.07-5.3L350.07-5.3ZM373.02 0L373.02-26.5 377.82-26.5 377.82 0 373.02 0ZM375.42-31.6Q374.02-31.6 373.09-32.5 372.17-33.4 372.17-34.7L372.17-34.7Q372.17-36 373.09-36.93 374.02-37.85 375.42-37.85L375.42-37.85Q376.82-37.85 377.74-36.98 378.67-36.1 378.67-34.8L378.67-34.8Q378.67-33.45 377.74-32.52 376.82-31.6 375.42-31.6L375.42-31.6ZM400.37-5L401.87-1.55Q400.81-0.65 399.27-0.18 397.72 0.3 396.06 0.3L396.06 0.3Q392.06 0.3 389.87-1.85 387.67-4 387.67-8L387.67-8 387.67-22.55 383.17-22.55 383.17-26.5 387.67-26.5 387.67-32.3 392.47-32.3 392.47-26.5 400.06-26.5 400.06-22.55 392.47-22.55 392.47-8.2Q392.47-6.05 393.54-4.9 394.62-3.75 396.62-3.75L396.62-3.75Q398.81-3.75 400.37-5L400.37-5ZM417.31-26.75Q422.81-26.75 425.74-24.05 428.66-21.35 428.66-16L428.66-16 428.66 0 424.11 0 424.11-3.5Q422.91-1.65 420.69-0.68 418.46 0.3 415.41 0.3L415.41 0.3Q410.96 0.3 408.29-1.85 405.61-4 405.61-7.5L405.61-7.5Q405.61-11 408.16-13.13 410.71-15.25 416.26-15.25L416.26-15.25 423.86-15.25 423.86-16.2Q423.86-19.3 422.06-20.95 420.26-22.6 416.76-22.6L416.76-22.6Q414.41-22.6 412.16-21.83 409.91-21.05 408.36-19.75L408.36-19.75 406.36-23.35Q408.41-25 411.26-25.88 414.11-26.75 417.31-26.75L417.31-26.75ZM416.21-3.4Q418.96-3.4 420.96-4.63 422.96-5.85 423.86-8.1L423.86-8.1 423.86-11.8 416.46-11.8Q410.36-11.8 410.36-7.7L410.36-7.7Q410.36-5.7 411.91-4.55 413.46-3.4 416.21-3.4L416.21-3.4ZM437.56 0L437.56-37.1 442.36-37.1 442.36 0 437.56 0Z" opacity="1" transform="matrix(1,0,0,1,0,0)" fill="#000000" class="wordmark-text-0" data-fill-palette-color="primary" id="text-0"></path></svg></g></svg></g><g transform="matrix(1,0,0,1,163.310208,53.16708977279999)"><svg viewBox="0 0 232.209792 13.41289142913265" height="13.41289142913265" width="232.209792"><g transform="matrix(1,0,0,1,0,0)"><svg width="232.209792" viewBox="5.7 -37.1 814.4799999999999 47.05" height="13.41289142913265" data-palette-color="#6a59ff"><path d="M43.15-35.3Q49.15-35.3 52.5-31.85 55.85-28.4 55.85-21.85L55.85-21.85 55.85 0 52.2 0 52.2-21.75Q52.2-26.85 49.63-29.43 47.05-32 42.6-32L42.6-32Q37.9-32 35.25-29.28 32.6-26.55 32.6-20.95L32.6-20.95 32.6 0 28.95 0 28.95-21.75Q28.95-26.85 26.45-29.43 23.95-32 19.5-32L19.5-32Q14.75-32 12.08-29.28 9.4-26.55 9.4-20.95L9.4-20.95 9.4 0 5.7 0 5.7-35 9.25-35 9.25-29.15Q10.7-32.15 13.55-33.73 16.4-35.3 20.3-35.3L20.3-35.3Q24.4-35.3 27.33-33.58 30.25-31.85 31.55-28.75L31.55-28.75Q33.05-31.95 36.08-33.63 39.1-35.3 43.15-35.3L43.15-35.3ZM86.7-26.3L90.25-26.3 90.25 0 86.85 0 86.85-5.2Q85.25-2.55 82.62-1.15 80 0.25 76.7 0.25L76.7 0.25Q73 0.25 70-1.45 67-3.15 65.3-6.2 63.6-9.25 63.6-13.15L63.6-13.15Q63.6-17.05 65.3-20.1 67-23.15 70-24.83 73-26.5 76.7-26.5L76.7-26.5Q79.9-26.5 82.47-25.18 85.05-23.85 86.7-21.3L86.7-21.3 86.7-26.3ZM77-2.9Q79.75-2.9 81.97-4.17 84.2-5.45 85.47-7.8 86.75-10.15 86.75-13.15L86.75-13.15Q86.75-16.15 85.47-18.5 84.2-20.85 81.97-22.13 79.75-23.4 77-23.4L77-23.4Q74.2-23.4 71.97-22.13 69.75-20.85 68.47-18.5 67.2-16.15 67.2-13.15L67.2-13.15Q67.2-10.15 68.47-7.8 69.75-5.45 71.97-4.17 74.2-2.9 77-2.9L77-2.9ZM120.95 0L116.9 0 108.55-11 100.15 0 96.15 0 106.55-13.5 96.65-26.3 100.65-26.3 108.55-16 116.45-26.3 120.35-26.3 110.45-13.5 120.95 0ZM126.84 0L126.84-26.3 130.39-26.3 130.39 0 126.84 0ZM128.64-32.05Q127.54-32.05 126.79-32.8 126.04-33.55 126.04-34.6L126.04-34.6Q126.04-35.6 126.79-36.35 127.54-37.1 128.64-37.1L128.64-37.1Q129.74-37.1 130.49-36.38 131.24-35.65 131.24-34.65L131.24-34.65Q131.24-33.55 130.49-32.8 129.74-32.05 128.64-32.05L128.64-32.05ZM173.09-26.5Q178.04-26.5 180.87-23.65 183.69-20.8 183.69-15.25L183.69-15.25 183.69 0 180.14 0 180.14-14.9Q180.14-19 178.17-21.15 176.19-23.3 172.59-23.3L172.59-23.3Q168.49-23.3 166.14-20.78 163.79-18.25 163.79-13.8L163.79-13.8 163.79 0 160.24 0 160.24-14.9Q160.24-19 158.27-21.15 156.29-23.3 152.64-23.3L152.64-23.3Q148.59-23.3 146.22-20.78 143.84-18.25 143.84-13.8L143.84-13.8 143.84 0 140.29 0 140.29-26.3 143.69-26.3 143.69-21.5Q145.09-23.9 147.59-25.2 150.09-26.5 153.34-26.5L153.34-26.5Q156.64-26.5 159.06-25.1 161.49-23.7 162.69-20.95L162.69-20.95Q164.14-23.55 166.87-25.03 169.59-26.5 173.09-26.5L173.09-26.5ZM193.34 0L193.34-26.3 196.89-26.3 196.89 0 193.34 0ZM195.14-32.05Q194.04-32.05 193.29-32.8 192.54-33.55 192.54-34.6L192.54-34.6Q192.54-35.6 193.29-36.35 194.04-37.1 195.14-37.1L195.14-37.1Q196.24-37.1 196.99-36.38 197.74-35.65 197.74-34.65L197.74-34.65Q197.74-33.55 196.99-32.8 196.24-32.05 195.14-32.05L195.14-32.05ZM208.74-2.95L225.59-2.95 225.59 0 204.19 0 204.19-2.35 211.69-11.85 206.24-11.85 206.24-14.7 213.94-14.7 220.74-23.3 204.49-23.3 204.49-26.3 225.29-26.3 225.29-23.95 217.99-14.7 223.54-14.7 223.54-11.85 215.74-11.85 208.74-2.95ZM243.63-2.9Q246.08-2.9 248.16-3.78 250.23-4.65 251.68-6.35L251.68-6.35 253.68-4.05Q251.93-1.95 249.33-0.85 246.73 0.25 243.58 0.25L243.58 0.25Q239.53 0.25 236.38-1.48 233.23-3.2 231.48-6.25 229.73-9.3 229.73-13.15L229.73-13.15Q229.73-17 231.41-20.05 233.08-23.1 236.03-24.8 238.98-26.5 242.73-26.5L242.73-26.5Q246.23-26.5 249.06-24.9 251.88-23.3 253.56-20.45 255.23-17.6 255.33-13.95L255.33-13.95 233.73-9.75Q234.73-6.55 237.36-4.73 239.98-2.9 243.63-2.9L243.63-2.9ZM242.73-23.45Q239.98-23.45 237.81-22.18 235.63-20.9 234.41-18.63 233.18-16.35 233.18-13.4L233.18-13.4Q233.18-12.65 233.23-12.3L233.23-12.3 251.78-15.9Q251.18-19.2 248.73-21.33 246.28-23.45 242.73-23.45L242.73-23.45ZM301.03-35L304.73-35 304.73-10.15Q304.73-2.65 300.83 1.3 296.93 5.25 290.03 5.25L290.03 5.25Q285.73 5.25 282.3 3.88 278.88 2.5 276.58-0.1L276.58-0.1 278.28-2.95Q282.73 1.95 290.03 1.95L290.03 1.95Q295.43 1.95 298.23-1.05 301.03-4.05 301.03-10.05L301.03-10.05 301.03-14.75Q297.63-8.8 289.68-8.8L289.68-8.8Q283.18-8.8 279.53-12.53 275.88-16.25 275.88-23.25L275.88-23.25 275.88-35 279.58-35 279.58-23.4Q279.58-17.85 282.33-14.98 285.08-12.1 290.03-12.1L290.03-12.1Q295.23-12.1 298.13-15.13 301.03-18.15 301.03-24.2L301.03-24.2 301.03-35ZM325.83 0.25Q322.03 0.25 318.98-1.48 315.93-3.2 314.18-6.25 312.43-9.3 312.43-13.15L312.43-13.15Q312.43-17 314.18-20.05 315.93-23.1 318.98-24.8 322.03-26.5 325.83-26.5L325.83-26.5Q329.63-26.5 332.68-24.8 335.73-23.1 337.45-20.05 339.18-17 339.18-13.15L339.18-13.15Q339.18-9.3 337.45-6.25 335.73-3.2 332.68-1.48 329.63 0.25 325.83 0.25L325.83 0.25ZM325.83-2.9Q328.63-2.9 330.85-4.17 333.08-5.45 334.33-7.8 335.58-10.15 335.58-13.15L335.58-13.15Q335.58-16.15 334.33-18.5 333.08-20.85 330.85-22.13 328.63-23.4 325.83-23.4L325.83-23.4Q323.03-23.4 320.8-22.13 318.58-20.85 317.3-18.5 316.03-16.15 316.03-13.15L316.03-13.15Q316.03-10.15 317.3-7.8 318.58-5.45 320.8-4.17 323.03-2.9 325.83-2.9L325.83-2.9ZM366.57-26.3L370.12-26.3 370.12 0 366.72 0 366.72-4.8Q365.32-2.4 362.87-1.07 360.42 0.25 357.27 0.25L357.27 0.25Q352.12 0.25 349.15-2.63 346.17-5.5 346.17-11.05L346.17-11.05 346.17-26.3 349.72-26.3 349.72-11.4Q349.72-7.25 351.77-5.1 353.82-2.95 357.62-2.95L357.62-2.95Q361.77-2.95 364.17-5.48 366.57-8 366.57-12.5L366.57-12.5 366.57-26.3ZM383.47-21.15Q384.72-23.8 387.2-25.15 389.67-26.5 393.32-26.5L393.32-26.5 393.32-23.05 392.47-23.1Q388.32-23.1 385.97-20.55 383.62-18 383.62-13.4L383.62-13.4 383.62 0 380.07 0 380.07-26.3 383.47-26.3 383.47-21.15ZM413.97 0L413.97-35 428.22-35Q433.77-35 438.02-32.77 442.27-30.55 444.62-26.58 446.97-22.6 446.97-17.5L446.97-17.5Q446.97-12.4 444.62-8.43 442.27-4.45 438.02-2.23 433.77 0 428.22 0L428.22 0 413.97 0ZM417.67-3.2L428.02-3.2Q432.62-3.2 436.07-5.03 439.52-6.85 441.42-10.08 443.32-13.3 443.32-17.5L443.32-17.5Q443.32-21.7 441.42-24.93 439.52-28.15 436.07-29.98 432.62-31.8 428.02-31.8L428.02-31.8 417.67-31.8 417.67-3.2ZM454.51 0L454.51-26.3 458.06-26.3 458.06 0 454.51 0ZM456.31-32.05Q455.21-32.05 454.46-32.8 453.71-33.55 453.71-34.6L453.71-34.6Q453.71-35.6 454.46-36.35 455.21-37.1 456.31-37.1L456.31-37.1Q457.41-37.1 458.16-36.38 458.91-35.65 458.91-34.65L458.91-34.65Q458.91-33.55 458.16-32.8 457.41-32.05 456.31-32.05L456.31-32.05ZM488.91-26.3L492.31-26.3 492.31-3.2Q492.31 3.5 489.04 6.73 485.76 9.95 479.16 9.95L479.16 9.95Q475.51 9.95 472.24 8.88 468.96 7.8 466.91 5.9L466.91 5.9 468.71 3.2Q470.61 4.9 473.34 5.85 476.06 6.8 479.06 6.8L479.06 6.8Q484.06 6.8 486.41 4.48 488.76 2.15 488.76-2.75L488.76-2.75 488.76-6.1Q487.11-3.6 484.44-2.3 481.76-1 478.51-1L478.51-1Q474.81-1 471.79-2.63 468.76-4.25 467.04-7.18 465.31-10.1 465.31-13.8L465.31-13.8Q465.31-17.5 467.04-20.4 468.76-23.3 471.76-24.9 474.76-26.5 478.51-26.5L478.51-26.5Q481.86-26.5 484.56-25.15 487.26-23.8 488.91-21.25L488.91-21.25 488.91-26.3ZM478.86-4.15Q481.71-4.15 484.01-5.38 486.31-6.6 487.59-8.8 488.86-11 488.86-13.8L488.86-13.8Q488.86-16.6 487.59-18.78 486.31-20.95 484.04-22.18 481.76-23.4 478.86-23.4L478.86-23.4Q476.01-23.4 473.74-22.2 471.46-21 470.19-18.8 468.91-16.6 468.91-13.8L468.91-13.8Q468.91-11 470.19-8.8 471.46-6.6 473.74-5.38 476.01-4.15 478.86-4.15L478.86-4.15ZM502.26 0L502.26-26.3 505.81-26.3 505.81 0 502.26 0ZM504.06-32.05Q502.96-32.05 502.21-32.8 501.46-33.55 501.46-34.6L501.46-34.6Q501.46-35.6 502.21-36.35 502.96-37.1 504.06-37.1L504.06-37.1Q505.16-37.1 505.91-36.38 506.66-35.65 506.66-34.65L506.66-34.65Q506.66-33.55 505.91-32.8 505.16-32.05 504.06-32.05L504.06-32.05ZM527.41-4.15L528.66-1.6Q527.66-0.7 526.21-0.23 524.76 0.25 523.16 0.25L523.16 0.25Q519.46 0.25 517.46-1.75 515.46-3.75 515.46-7.4L515.46-7.4 515.46-32.05 519.01-32.05 519.01-26.3 526.96-26.3 526.96-23.3 519.01-23.3 519.01-7.6Q519.01-5.25 520.16-4.03 521.31-2.8 523.51-2.8L523.51-2.8Q525.91-2.8 527.41-4.15L527.41-4.15ZM554.6-26.3L558.15-26.3 558.15 0 554.75 0 554.75-5.2Q553.15-2.55 550.53-1.15 547.9 0.25 544.6 0.25L544.6 0.25Q540.9 0.25 537.9-1.45 534.9-3.15 533.2-6.2 531.5-9.25 531.5-13.15L531.5-13.15Q531.5-17.05 533.2-20.1 534.9-23.15 537.9-24.83 540.9-26.5 544.6-26.5L544.6-26.5Q547.8-26.5 550.38-25.18 552.95-23.85 554.6-21.3L554.6-21.3 554.6-26.3ZM544.9-2.9Q547.65-2.9 549.88-4.17 552.1-5.45 553.38-7.8 554.65-10.15 554.65-13.15L554.65-13.15Q554.65-16.15 553.38-18.5 552.1-20.85 549.88-22.13 547.65-23.4 544.9-23.4L544.9-23.4Q542.1-23.4 539.88-22.13 537.65-20.85 536.38-18.5 535.1-16.15 535.1-13.15L535.1-13.15Q535.1-10.15 536.38-7.8 537.65-5.45 539.88-4.17 542.1-2.9 544.9-2.9L544.9-2.9ZM575.45 0.25Q571.9 0.25 569.97-1.75 568.05-3.75 568.05-7.3L568.05-7.3 568.05-37.1 571.6-37.1 571.6-7.6Q571.6-5.25 572.7-4.03 573.8-2.8 576-2.8L576-2.8Q577.4-2.8 578.4-3.25L578.4-3.25 578.65-0.3Q577.1 0.25 575.45 0.25L575.45 0.25ZM610.44-35Q617.14-35 620.94-31.8 624.74-28.6 624.74-23L624.74-23Q624.74-17.4 620.94-14.23 617.14-11.05 610.44-11.05L610.44-11.05 601.04-11.05 601.04 0 597.34 0 597.34-35 610.44-35ZM610.34-14.3Q615.54-14.3 618.29-16.57 621.04-18.85 621.04-23L621.04-23Q621.04-27.25 618.29-29.53 615.54-31.8 610.34-31.8L610.34-31.8 601.04-31.8 601.04-14.3 610.34-14.3ZM634.74-21.15Q635.99-23.8 638.47-25.15 640.94-26.5 644.59-26.5L644.59-26.5 644.59-23.05 643.74-23.1Q639.59-23.1 637.24-20.55 634.89-18 634.89-13.4L634.89-13.4 634.89 0 631.34 0 631.34-26.3 634.74-26.3 634.74-21.15ZM661.99-2.9Q664.44-2.9 666.51-3.78 668.59-4.65 670.04-6.35L670.04-6.35 672.04-4.05Q670.29-1.95 667.69-0.85 665.09 0.25 661.94 0.25L661.94 0.25Q657.89 0.25 654.74-1.48 651.59-3.2 649.84-6.25 648.09-9.3 648.09-13.15L648.09-13.15Q648.09-17 649.76-20.05 651.44-23.1 654.39-24.8 657.34-26.5 661.09-26.5L661.09-26.5Q664.59-26.5 667.41-24.9 670.24-23.3 671.91-20.45 673.59-17.6 673.69-13.95L673.69-13.95 652.09-9.75Q653.09-6.55 655.71-4.73 658.34-2.9 661.99-2.9L661.99-2.9ZM661.09-23.45Q658.34-23.45 656.16-22.18 653.99-20.9 652.76-18.63 651.54-16.35 651.54-13.4L651.54-13.4Q651.54-12.65 651.59-12.3L651.59-12.3 670.14-15.9Q669.54-19.2 667.09-21.33 664.64-23.45 661.09-23.45L661.09-23.45ZM687.99 0.25Q684.79 0.25 681.86-0.68 678.94-1.6 677.29-3L677.29-3 678.89-5.8Q680.54-4.5 683.04-3.68 685.54-2.85 688.24-2.85L688.24-2.85Q691.84-2.85 693.56-3.98 695.29-5.1 695.29-7.15L695.29-7.15Q695.29-8.6 694.34-9.43 693.39-10.25 691.94-10.68 690.49-11.1 688.09-11.5L688.09-11.5Q684.89-12.1 682.94-12.73 680.99-13.35 679.61-14.85 678.24-16.35 678.24-19L678.24-19Q678.24-22.3 680.99-24.4 683.74-26.5 688.64-26.5L688.64-26.5Q691.19-26.5 693.74-25.83 696.29-25.15 697.94-24.05L697.94-24.05 696.39-21.2Q693.14-23.45 688.64-23.45L688.64-23.45Q685.24-23.45 683.51-22.25 681.79-21.05 681.79-19.1L681.79-19.1Q681.79-17.6 682.76-16.7 683.74-15.8 685.19-15.38 686.64-14.95 689.19-14.5L689.19-14.5Q692.34-13.9 694.24-13.3 696.14-12.7 697.49-11.25 698.84-9.8 698.84-7.25L698.84-7.25Q698.84-3.8 695.96-1.78 693.09 0.25 687.99 0.25L687.99 0.25ZM716.63-2.9Q719.08-2.9 721.16-3.78 723.23-4.65 724.68-6.35L724.68-6.35 726.68-4.05Q724.93-1.95 722.33-0.85 719.73 0.25 716.58 0.25L716.58 0.25Q712.53 0.25 709.38-1.48 706.23-3.2 704.48-6.25 702.73-9.3 702.73-13.15L702.73-13.15Q702.73-17 704.41-20.05 706.08-23.1 709.03-24.8 711.98-26.5 715.73-26.5L715.73-26.5Q719.23-26.5 722.06-24.9 724.88-23.3 726.56-20.45 728.23-17.6 728.33-13.95L728.33-13.95 706.73-9.75Q707.73-6.55 710.36-4.73 712.98-2.9 716.63-2.9L716.63-2.9ZM715.73-23.45Q712.98-23.45 710.81-22.18 708.63-20.9 707.41-18.63 706.18-16.35 706.18-13.4L706.18-13.4Q706.18-12.65 706.23-12.3L706.23-12.3 724.78-15.9Q724.18-19.2 721.73-21.33 719.28-23.45 715.73-23.45L715.73-23.45ZM748.98-26.5Q753.93-26.5 756.86-23.63 759.78-20.75 759.78-15.25L759.78-15.25 759.78 0 756.23 0 756.23-14.9Q756.23-19 754.18-21.15 752.13-23.3 748.33-23.3L748.33-23.3Q744.08-23.3 741.61-20.78 739.13-18.25 739.13-13.8L739.13-13.8 739.13 0 735.58 0 735.58-26.3 738.98-26.3 738.98-21.45Q740.43-23.85 743.01-25.18 745.58-26.5 748.98-26.5L748.98-26.5ZM780.43 0.25Q776.53 0.25 773.45-1.45 770.38-3.15 768.63-6.23 766.88-9.3 766.88-13.15L766.88-13.15Q766.88-17 768.63-20.05 770.38-23.1 773.45-24.8 776.53-26.5 780.43-26.5L780.43-26.5Q783.83-26.5 786.5-25.18 789.18-23.85 790.73-21.3L790.73-21.3 788.08-19.5Q786.78-21.45 784.78-22.43 782.78-23.4 780.43-23.4L780.43-23.4Q777.58-23.4 775.3-22.13 773.03-20.85 771.75-18.5 770.48-16.15 770.48-13.15L770.48-13.15Q770.48-10.1 771.75-7.78 773.03-5.45 775.3-4.17 777.58-2.9 780.43-2.9L780.43-2.9Q782.78-2.9 784.78-3.85 786.78-4.8 788.08-6.75L788.08-6.75 790.73-4.95Q789.18-2.4 786.48-1.07 783.78 0.25 780.43 0.25L780.43 0.25ZM808.48-2.9Q810.93-2.9 813-3.78 815.08-4.65 816.53-6.35L816.53-6.35 818.53-4.05Q816.78-1.95 814.18-0.85 811.58 0.25 808.43 0.25L808.43 0.25Q804.38 0.25 801.23-1.48 798.08-3.2 796.33-6.25 794.58-9.3 794.58-13.15L794.58-13.15Q794.58-17 796.25-20.05 797.93-23.1 800.88-24.8 803.83-26.5 807.58-26.5L807.58-26.5Q811.08-26.5 813.9-24.9 816.73-23.3 818.4-20.45 820.08-17.6 820.18-13.95L820.18-13.95 798.58-9.75Q799.58-6.55 802.2-4.73 804.83-2.9 808.48-2.9L808.48-2.9ZM807.58-23.45Q804.83-23.45 802.65-22.18 800.48-20.9 799.25-18.63 798.03-16.35 798.03-13.4L798.03-13.4Q798.03-12.65 798.08-12.3L798.08-12.3 816.63-15.9Q816.03-19.2 813.58-21.33 811.13-23.45 807.58-23.45L807.58-23.45Z" opacity="1" transform="matrix(1,0,0,1,0,0)" fill="#000000" class="slogan-text-1" data-fill-palette-color="secondary" id="text-1"></path></svg></g></svg></g></svg></g></svg></g><g transform="matrix(1,0,0,1,405.67428977279997,0)"><svg viewBox="0 0 92.01353402107091 92.01353402107091" height="92.01353402107091" width="92.01353402107091"><g data-palette-color="#18a0fb"><rect width="25.15036596575938" height="92.01353402107091" fill="#000000" stroke="transparent" data-fill-palette-color="accent" x="0" fill-opacity="1"></rect><rect width="25.15036596575938" height="92.01353402107091" fill="#000000" stroke="transparent" data-fill-palette-color="accent" x="30.671178007023634" fill-opacity="0.75"></rect><rect width="25.15036596575938" height="92.01353402107091" fill="#000000" stroke="transparent" data-fill-palette-color="accent" x="61.34235601404727" fill-opacity="0.5"></rect></g></svg></g></svg></g><defs></defs></svg><rect width="395.52" height="73.1245395930905" fill="none" stroke="none" visibility="hidden"></rect></g></svg></g></svg>